<svg xmlns="http://www.w3.org/2000/svg" xmlns:xlink="http://www.w3.org/1999/xlink" width="1000" zoomAndPan="magnify" viewBox="0 0 750 374.999991" height="500" preserveAspectRatio="xMidYMid meet" version="1.0"><defs><g/><clipPath id="fb2c38482f"><path d="M 315.84375 150.160156 L 434.34375 150.160156 L 434.34375 268.660156 L 315.84375 268.660156 Z M 315.84375 150.160156 " clip-rule="nonzero"/></clipPath></defs><rect x="-75" width="900" fill="#ffffff" y="-37.499999" height="449.999989" fill-opacity="1"/><rect x="-75" width="900" fill="#ffffff" y="-37.499999" height="449.999989" fill-opacity="1"/><rect x="-75" width="900" fill="#cfcfcf" y="-37.499999" height="449.999989" fill-opacity="1"/><g clip-path="url(#fb2c38482f)"><path fill="#36b192" d="M 375.09375 268.660156 C 342.363281 268.660156 315.84375 241.960938 315.84375 209.410156 C 315.84375 176.859375 342.363281 150.160156 375.09375 150.160156 C 407.828125 150.160156 434.34375 176.675781 434.34375 209.410156 C 434.34375 242.144531 407.644531 268.660156 375.09375 268.660156 Z M 375.09375 153.816406 C 344.375 153.816406 319.503906 178.6875 319.503906 209.410156 C 319.503906 240.132812 344.375 265.003906 375.09375 265.003906 C 405.816406 265.003906 430.6875 240.132812 430.6875 209.410156 C 430.6875 178.6875 405.636719 153.816406 375.09375 153.816406 Z M 375.09375 153.816406 " fill-opacity="1" fill-rule="nonzero"/></g><g fill="#ff914d" fill-opacity="1"><g transform="translate(331.944186, 221.573575)"><g><path d="M 16.40625 -19.71875 C 19.507812 -19.332031 21.875 -18.273438 23.5 -16.546875 C 25.132812 -14.828125 25.953125 -12.671875 25.953125 -10.078125 C 25.953125 -8.128906 25.457031 -6.351562 24.46875 -4.75 C 23.476562 -3.144531 21.984375 -1.867188 19.984375 -0.921875 C 17.984375 0.015625 15.546875 0.484375 12.671875 0.484375 C 10.265625 0.484375 7.953125 0.140625 5.734375 -0.546875 C 3.515625 -1.234375 1.617188 -2.1875 0.046875 -3.40625 L 2.734375 -8.25 C 3.953125 -7.226562 5.429688 -6.421875 7.171875 -5.828125 C 8.910156 -5.234375 10.710938 -4.9375 12.578125 -4.9375 C 14.785156 -4.9375 16.519531 -5.390625 17.78125 -6.296875 C 19.039062 -7.210938 19.671875 -8.457031 19.671875 -10.03125 C 19.671875 -11.59375 19.070312 -12.8125 17.875 -13.6875 C 16.675781 -14.570312 14.84375 -15.015625 12.375 -15.015625 L 9.3125 -15.015625 L 9.3125 -19.296875 L 16.9375 -28.359375 L 1.671875 -28.359375 L 1.671875 -33.59375 L 24.5625 -33.59375 L 24.5625 -29.421875 Z M 16.40625 -19.71875 "/></g></g></g><g fill="#ff914d" fill-opacity="1"><g transform="translate(359.871739, 221.573575)"><g><path d="M 17.375 -20.734375 C 19.582031 -20.734375 21.5625 -20.304688 23.3125 -19.453125 C 25.070312 -18.609375 26.445312 -17.398438 27.4375 -15.828125 C 28.4375 -14.265625 28.9375 -12.457031 28.9375 -10.40625 C 28.9375 -8.238281 28.390625 -6.328125 27.296875 -4.671875 C 26.210938 -3.023438 24.742188 -1.753906 22.890625 -0.859375 C 21.035156 0.0351562 18.957031 0.484375 16.65625 0.484375 C 12.039062 0.484375 8.460938 -0.953125 5.921875 -3.828125 C 3.378906 -6.710938 2.109375 -10.84375 2.109375 -16.21875 C 2.109375 -19.988281 2.796875 -23.207031 4.171875 -25.875 C 5.546875 -28.550781 7.472656 -30.582031 9.953125 -31.96875 C 12.429688 -33.363281 15.300781 -34.0625 18.5625 -34.0625 C 20.289062 -34.0625 21.914062 -33.878906 23.4375 -33.515625 C 24.957031 -33.148438 26.28125 -32.613281 27.40625 -31.90625 L 25.09375 -27.203125 C 23.425781 -28.296875 21.300781 -28.84375 18.71875 -28.84375 C 15.488281 -28.84375 12.957031 -27.847656 11.125 -25.859375 C 9.300781 -23.878906 8.390625 -21.019531 8.390625 -17.28125 L 8.390625 -17.21875 C 9.390625 -18.375 10.65625 -19.25 12.1875 -19.84375 C 13.71875 -20.4375 15.445312 -20.734375 17.375 -20.734375 Z M 16.3125 -4.421875 C 18.257812 -4.421875 19.84375 -4.9375 21.0625 -5.96875 C 22.28125 -7.007812 22.890625 -8.394531 22.890625 -10.125 C 22.890625 -11.882812 22.28125 -13.273438 21.0625 -14.296875 C 19.84375 -15.316406 18.210938 -15.828125 16.171875 -15.828125 C 14.148438 -15.828125 12.507812 -15.285156 11.25 -14.203125 C 9.988281 -13.117188 9.359375 -11.742188 9.359375 -10.078125 C 9.359375 -8.441406 9.972656 -7.085938 11.203125 -6.015625 C 12.429688 -4.953125 14.132812 -4.421875 16.3125 -4.421875 Z M 16.3125 -4.421875 "/></g></g></g><g fill="#ff914d" fill-opacity="1"><g transform="translate(389.95864, 221.573575)"><g><path d="M 12.625 -20.578125 C 17.351562 -20.578125 20.851562 -19.65625 23.125 -17.8125 C 25.394531 -15.976562 26.53125 -13.476562 26.53125 -10.3125 C 26.53125 -8.300781 26.035156 -6.476562 25.046875 -4.84375 C 24.054688 -3.21875 22.566406 -1.921875 20.578125 -0.953125 C 18.597656 0.00390625 16.15625 0.484375 13.25 0.484375 C 10.84375 0.484375 8.519531 0.140625 6.28125 -0.546875 C 4.039062 -1.234375 2.15625 -2.1875 0.625 -3.40625 L 3.265625 -8.25 C 4.515625 -7.226562 6.007812 -6.421875 7.75 -5.828125 C 9.488281 -5.234375 11.285156 -4.9375 13.140625 -4.9375 C 15.347656 -4.9375 17.082031 -5.390625 18.34375 -6.296875 C 19.613281 -7.210938 20.25 -8.472656 20.25 -10.078125 C 20.25 -11.804688 19.566406 -13.109375 18.203125 -13.984375 C 16.847656 -14.867188 14.523438 -15.3125 11.234375 -15.3125 L 3.125 -15.3125 L 4.84375 -33.59375 L 24.5625 -33.59375 L 24.5625 -28.359375 L 10.125 -28.359375 L 9.40625 -20.578125 Z M 12.625 -20.578125 "/></g></g></g><g fill="#ff914d" fill-opacity="1"><g transform="translate(331.944186, 233.239329)"><g><path d="M 6.660156 -5.664062 C 6.515625 -5.953125 6.253906 -6.414062 6.046875 -6.714844 L 5.394531 -6.445312 C 5.546875 -6.214844 5.703125 -5.9375 5.839844 -5.671875 C 5.695312 -5.65625 5.5625 -5.65625 5.464844 -5.65625 L 1.777344 -5.65625 C 1.515625 -5.65625 1.058594 -5.6875 0.828125 -5.71875 L 0.828125 -4.597656 C 1.035156 -4.613281 1.410156 -4.628906 1.777344 -4.628906 L 5.488281 -4.628906 C 5.378906 -3.945312 5.074219 -3.042969 4.550781 -2.382812 C 3.902344 -1.570312 3.011719 -0.882812 1.425781 -0.511719 L 2.292969 0.4375 C 3.722656 -0.015625 4.78125 -0.804688 5.496094 -1.761719 C 6.167969 -2.644531 6.507812 -3.878906 6.691406 -4.660156 C 6.742188 -4.828125 6.796875 -5.058594 6.867188 -5.210938 L 6.367188 -5.539062 Z M 6.5 -6.644531 C 6.714844 -6.359375 6.964844 -5.902344 7.140625 -5.578125 L 7.800781 -5.863281 C 7.648438 -6.144531 7.363281 -6.628906 7.164062 -6.914062 Z M 6.5 -6.644531 "/></g></g></g><g fill="#ff914d" fill-opacity="1"><g transform="translate(343.098546, 233.239329)"><g><path d="M 5.9375 -4.621094 L 5.9375 -1.316406 L 2.085938 -1.316406 L 2.085938 -4.621094 Z M 7.003906 -4.875 C 7.003906 -5.113281 7.003906 -5.410156 7.019531 -5.648438 C 6.734375 -5.632812 6.429688 -5.632812 6.230469 -5.632812 L 1.847656 -5.632812 C 1.632812 -5.632812 1.332031 -5.640625 1.003906 -5.648438 C 1.019531 -5.425781 1.019531 -5.097656 1.019531 -4.875 L 1.019531 -0.980469 C 1.019531 -0.597656 1.003906 0.09375 0.996094 0.136719 L 2.09375 0.136719 L 2.085938 -0.304688 L 5.929688 -0.304688 L 5.917969 0.136719 L 7.019531 0.136719 C 7.019531 0.105469 7.003906 -0.660156 7.003906 -0.972656 Z M 7.003906 -4.875 "/></g></g></g><g fill="#ff914d" fill-opacity="1"><g transform="translate(354.252905, 233.239329)"><g><path d="M 6.835938 -5.433594 C 6.683594 -5.730469 6.40625 -6.238281 6.207031 -6.527344 L 5.578125 -6.269531 C 5.777344 -5.984375 6 -5.5625 6.160156 -5.242188 L 6.101562 -5.273438 C 5.929688 -5.21875 5.65625 -5.179688 5.410156 -5.179688 L 3.808594 -5.179688 L 3.832031 -5.21875 C 3.929688 -5.394531 4.136719 -5.753906 4.328125 -6.03125 L 3.15625 -6.414062 C 3.082031 -6.144531 2.925781 -5.777344 2.796875 -5.578125 C 2.40625 -4.890625 1.714844 -3.863281 0.3125 -3.019531 L 1.203125 -2.351562 C 1.992188 -2.882812 2.683594 -3.585938 3.210938 -4.277344 L 5.457031 -4.277344 C 5.332031 -3.6875 4.867188 -2.726562 4.328125 -2.113281 C 3.625 -1.316406 2.742188 -0.621094 1.117188 -0.136719 L 2.054688 0.710938 C 3.554688 0.113281 4.507812 -0.613281 5.265625 -1.546875 C 5.992188 -2.429688 6.445312 -3.488281 6.660156 -4.207031 C 6.722656 -4.398438 6.835938 -4.621094 6.921875 -4.773438 L 6.246094 -5.1875 Z M 6.515625 -6.628906 C 6.742188 -6.328125 6.996094 -5.863281 7.15625 -5.53125 L 7.792969 -5.800781 C 7.648438 -6.078125 7.355469 -6.589844 7.148438 -6.882812 Z M 6.515625 -6.628906 "/></g></g></g><g fill="#ff914d" fill-opacity="1"><g transform="translate(365.407266, 233.239329)"><g><path d="M 0.421875 -2.734375 L 2.671875 -2.734375 L 2.671875 -1.75 L 0.421875 -1.75 Z M 0.421875 -2.734375 "/></g></g></g><g fill="#ff914d" fill-opacity="1"><g transform="translate(371.667518, 233.239329)"><g><path d="M 5.65625 -1.082031 L 5.65625 -0.367188 L 2.328125 -0.367188 L 2.328125 -1.082031 Z M 1.394531 0.691406 L 2.328125 0.691406 L 2.328125 0.414062 L 5.65625 0.414062 L 5.65625 0.667969 L 6.636719 0.667969 L 6.636719 -1.871094 L 1.394531 -1.871094 Z M 1.488281 -2.429688 L 6.550781 -2.429688 L 6.550781 -3.171875 L 1.488281 -3.171875 Z M 6.550781 -4.40625 L 1.488281 -4.40625 L 1.488281 -3.664062 L 6.550781 -3.664062 Z M 4.773438 -5.671875 C 4.636719 -6.007812 4.367188 -6.453125 4.09375 -6.796875 L 3.140625 -6.558594 C 3.332031 -6.285156 3.53125 -5.960938 3.65625 -5.671875 L 0.382812 -5.671875 L 0.382812 -4.875 L 7.609375 -4.875 L 7.609375 -5.671875 Z M 4.773438 -5.671875 "/></g></g></g><g fill="#ff914d" fill-opacity="1"><g transform="translate(382.821877, 233.239329)"><g><path d="M 3.347656 -5.433594 L 1.929688 -5.433594 L 2.460938 -5.71875 C 2.335938 -6.015625 2.085938 -6.453125 1.863281 -6.78125 L 1.132812 -6.4375 C 1.316406 -6.136719 1.53125 -5.738281 1.648438 -5.433594 L 0.269531 -5.433594 L 0.269531 -4.683594 L 3.347656 -4.683594 Z M 3.058594 -4.328125 L 0.621094 -4.328125 L 0.621094 -3.609375 L 3.058594 -3.609375 Z M 0.621094 -2.542969 L 3.058594 -2.542969 L 3.058594 -3.25 L 0.621094 -3.25 Z M 2.292969 -1.402344 L 2.292969 -0.511719 L 1.402344 -0.511719 L 1.402344 -1.402344 Z M 3.117188 -2.160156 L 0.605469 -2.160156 L 0.605469 0.589844 L 1.402344 0.589844 L 1.402344 0.253906 L 3.117188 0.253906 Z M 6.351562 -1.472656 L 6.351562 -0.398438 L 4.492188 -0.398438 L 4.492188 -1.472656 Z M 3.609375 0.699219 L 4.492188 0.699219 L 4.492188 0.414062 L 6.351562 0.414062 L 6.351562 0.675781 L 7.273438 0.675781 L 7.273438 -2.285156 L 3.609375 -2.285156 Z M 6.152344 -4.320312 L 6.152344 -3.441406 L 5.066406 -3.441406 C 5.125 -3.703125 5.1875 -4 5.242188 -4.320312 Z M 7.027344 -3.441406 L 7.027344 -5.082031 L 5.378906 -5.082031 C 5.417969 -5.28125 5.449219 -5.480469 5.480469 -5.671875 L 7.496094 -5.671875 L 7.496094 -6.453125 L 3.410156 -6.453125 L 3.410156 -5.671875 L 4.550781 -5.671875 C 4.519531 -5.480469 4.492188 -5.28125 4.460938 -5.082031 L 3.609375 -5.082031 L 3.609375 -4.320312 L 4.328125 -4.320312 C 4.269531 -4 4.207031 -3.703125 4.160156 -3.441406 L 3.210938 -3.441406 L 3.210938 -2.660156 L 7.703125 -2.660156 L 7.703125 -3.441406 Z M 7.027344 -3.441406 "/></g></g></g><g fill="#ff914d" fill-opacity="1"><g transform="translate(393.976236, 233.239329)"><g><path d="M 0.421875 -2.734375 L 2.671875 -2.734375 L 2.671875 -1.75 L 0.421875 -1.75 Z M 0.421875 -2.734375 "/></g></g></g><g fill="#ff914d" fill-opacity="1"><g transform="translate(400.238817, 233.239329)"><g><path d="M 5.339844 -4.484375 C 5.027344 -3.609375 4.589844 -2.882812 4.039062 -2.277344 C 3.425781 -2.90625 2.949219 -3.648438 2.605469 -4.484375 Z M 7.625 -4.484375 L 7.625 -5.410156 L 4.160156 -5.410156 L 4.84375 -5.625 C 4.75 -5.953125 4.507812 -6.460938 4.300781 -6.828125 L 3.289062 -6.535156 C 3.472656 -6.183594 3.648438 -5.738281 3.738281 -5.410156 L 0.375 -5.410156 L 0.375 -4.484375 L 1.625 -4.484375 C 2.054688 -3.363281 2.605469 -2.40625 3.324219 -1.617188 C 2.492188 -0.972656 1.464844 -0.519531 0.222656 -0.207031 C 0.414062 0.0078125 0.691406 0.453125 0.796875 0.675781 C 2.078125 0.3125 3.148438 -0.214844 4.023438 -0.933594 C 4.859375 -0.230469 5.886719 0.292969 7.140625 0.628906 C 7.28125 0.367188 7.5625 -0.046875 7.777344 -0.253906 C 6.589844 -0.535156 5.585938 -0.996094 4.765625 -1.632812 C 5.457031 -2.40625 6 -3.339844 6.40625 -4.484375 Z M 7.625 -4.484375 "/></g></g></g><g fill="#ff914d" fill-opacity="1"><g transform="translate(411.393176, 233.239329)"><g><path d="M 5.386719 -0.390625 C 5.066406 -0.390625 5.019531 -0.460938 5.019531 -0.925781 L 5.019531 -2.453125 C 5.960938 -3.171875 6.882812 -4.0625 7.625 -5.089844 L 6.714844 -5.710938 C 6.246094 -4.988281 5.65625 -4.328125 5.019531 -3.753906 L 5.019531 -6.628906 L 3.992188 -6.628906 L 3.992188 -2.933594 C 3.480469 -2.558594 2.957031 -2.261719 2.460938 -2.023438 L 2.460938 -4.933594 C 2.757812 -5.433594 3.019531 -5.953125 3.234375 -6.460938 L 2.269531 -6.78125 C 1.832031 -5.632812 1.050781 -4.507812 0.253906 -3.800781 C 0.429688 -3.578125 0.742188 -3.066406 0.859375 -2.835938 C 1.058594 -3.035156 1.257812 -3.25 1.457031 -3.488281 L 1.457031 0.691406 L 2.460938 0.691406 L 2.460938 -1.921875 C 2.691406 -1.730469 2.957031 -1.449219 3.082031 -1.265625 C 3.386719 -1.410156 3.679688 -1.570312 3.992188 -1.761719 L 3.992188 -0.941406 C 3.992188 0.207031 4.269531 0.558594 5.25 0.558594 L 6.414062 0.558594 C 7.363281 0.558594 7.609375 -0.0234375 7.710938 -1.570312 C 7.441406 -1.632812 7.019531 -1.832031 6.78125 -2.023438 C 6.714844 -0.710938 6.660156 -0.390625 6.316406 -0.390625 Z M 5.386719 -0.390625 "/></g></g></g><g fill="#36b192" fill-opacity="1"><g transform="translate(271.964657, 293.41904)"><g><path d="M 0.75 -1.21875 C 0.75 -2.070312 0.84375 -2.789062 1.03125 -3.375 C 1.21875 -3.957031 1.519531 -4.488281 1.9375 -4.96875 C 2.351562 -5.445312 2.953125 -5.960938 3.734375 -6.515625 L 5.78125 -8 C 6.34375 -8.40625 6.78125 -8.753906 7.09375 -9.046875 C 7.40625 -9.335938 7.640625 -9.644531 7.796875 -9.96875 C 7.953125 -10.289062 8.03125 -10.660156 8.03125 -11.078125 C 8.03125 -11.703125 7.835938 -12.179688 7.453125 -12.515625 C 7.078125 -12.859375 6.515625 -13.03125 5.765625 -13.03125 C 5.035156 -13.03125 4.382812 -12.851562 3.8125 -12.5 C 3.238281 -12.15625 2.769531 -11.6875 2.40625 -11.09375 L 2.203125 -11.03125 L 0.53125 -12.90625 C 1.070312 -13.71875 1.78125 -14.367188 2.65625 -14.859375 C 3.539062 -15.359375 4.613281 -15.609375 5.875 -15.609375 C 7.03125 -15.609375 7.992188 -15.421875 8.765625 -15.046875 C 9.535156 -14.671875 10.109375 -14.15625 10.484375 -13.5 C 10.867188 -12.84375 11.0625 -12.085938 11.0625 -11.234375 C 11.0625 -10.503906 10.90625 -9.835938 10.59375 -9.234375 C 10.289062 -8.628906 9.867188 -8.070312 9.328125 -7.5625 C 8.785156 -7.050781 8.09375 -6.5 7.25 -5.90625 L 5.4375 -4.625 C 4.882812 -4.238281 4.5 -3.890625 4.28125 -3.578125 C 4.0625 -3.273438 3.953125 -2.929688 3.953125 -2.546875 L 10.90625 -2.546875 L 10.90625 0 L 0.75 0 Z M 0.75 -1.21875 "/></g></g></g><g fill="#36b192" fill-opacity="1"><g transform="translate(283.974694, 293.41904)"><g><path d="M 7.515625 0.21875 C 6.253906 0.21875 5.160156 -0.0546875 4.234375 -0.609375 C 3.304688 -1.171875 2.582031 -2.039062 2.0625 -3.21875 C 1.550781 -4.394531 1.296875 -5.890625 1.296875 -7.703125 C 1.296875 -9.503906 1.550781 -10.992188 2.0625 -12.171875 C 2.582031 -13.347656 3.304688 -14.210938 4.234375 -14.765625 C 5.160156 -15.328125 6.253906 -15.609375 7.515625 -15.609375 C 8.773438 -15.609375 9.867188 -15.328125 10.796875 -14.765625 C 11.734375 -14.210938 12.457031 -13.347656 12.96875 -12.171875 C 13.488281 -10.992188 13.75 -9.503906 13.75 -7.703125 C 13.75 -5.890625 13.488281 -4.394531 12.96875 -3.21875 C 12.457031 -2.039062 11.734375 -1.171875 10.796875 -0.609375 C 9.867188 -0.0546875 8.773438 0.21875 7.515625 0.21875 Z M 7.515625 -2.359375 C 8.203125 -2.359375 8.773438 -2.523438 9.234375 -2.859375 C 9.703125 -3.191406 10.0625 -3.75 10.3125 -4.53125 C 10.5625 -5.320312 10.6875 -6.378906 10.6875 -7.703125 C 10.6875 -9.015625 10.5625 -10.0625 10.3125 -10.84375 C 10.0625 -11.632812 9.703125 -12.195312 9.234375 -12.53125 C 8.773438 -12.863281 8.203125 -13.03125 7.515625 -13.03125 C 6.828125 -13.03125 6.25 -12.863281 5.78125 -12.53125 C 5.320312 -12.195312 4.96875 -11.632812 4.71875 -10.84375 C 4.46875 -10.0625 4.34375 -9.015625 4.34375 -7.703125 C 4.34375 -6.378906 4.46875 -5.320312 4.71875 -4.53125 C 4.96875 -3.75 5.320312 -3.191406 5.78125 -2.859375 C 6.25 -2.523438 6.828125 -2.359375 7.515625 -2.359375 Z M 7.515625 -2.359375 "/></g></g></g><g fill="#36b192" fill-opacity="1"><g transform="translate(299.016185, 293.41904)"><g><path d="M 0.75 -1.21875 C 0.75 -2.070312 0.84375 -2.789062 1.03125 -3.375 C 1.21875 -3.957031 1.519531 -4.488281 1.9375 -4.96875 C 2.351562 -5.445312 2.953125 -5.960938 3.734375 -6.515625 L 5.78125 -8 C 6.34375 -8.40625 6.78125 -8.753906 7.09375 -9.046875 C 7.40625 -9.335938 7.640625 -9.644531 7.796875 -9.96875 C 7.953125 -10.289062 8.03125 -10.660156 8.03125 -11.078125 C 8.03125 -11.703125 7.835938 -12.179688 7.453125 -12.515625 C 7.078125 -12.859375 6.515625 -13.03125 5.765625 -13.03125 C 5.035156 -13.03125 4.382812 -12.851562 3.8125 -12.5 C 3.238281 -12.15625 2.769531 -11.6875 2.40625 -11.09375 L 2.203125 -11.03125 L 0.53125 -12.90625 C 1.070312 -13.71875 1.78125 -14.367188 2.65625 -14.859375 C 3.539062 -15.359375 4.613281 -15.609375 5.875 -15.609375 C 7.03125 -15.609375 7.992188 -15.421875 8.765625 -15.046875 C 9.535156 -14.671875 10.109375 -14.15625 10.484375 -13.5 C 10.867188 -12.84375 11.0625 -12.085938 11.0625 -11.234375 C 11.0625 -10.503906 10.90625 -9.835938 10.59375 -9.234375 C 10.289062 -8.628906 9.867188 -8.070312 9.328125 -7.5625 C 8.785156 -7.050781 8.09375 -6.5 7.25 -5.90625 L 5.4375 -4.625 C 4.882812 -4.238281 4.5 -3.890625 4.28125 -3.578125 C 4.0625 -3.273438 3.953125 -2.929688 3.953125 -2.546875 L 10.90625 -2.546875 L 10.90625 0 L 0.75 0 Z M 0.75 -1.21875 "/></g></g></g><g fill="#36b192" fill-opacity="1"><g transform="translate(311.026221, 293.41904)"><g><path d="M 6.28125 0.21875 C 4.625 0.21875 3.3125 -0.128906 2.34375 -0.828125 C 1.375 -1.523438 0.757812 -2.515625 0.5 -3.796875 L 2.8125 -4.859375 L 3.046875 -4.828125 C 3.304688 -3.972656 3.675781 -3.347656 4.15625 -2.953125 C 4.644531 -2.566406 5.316406 -2.375 6.171875 -2.375 C 6.992188 -2.375 7.625 -2.566406 8.0625 -2.953125 C 8.5 -3.335938 8.71875 -3.898438 8.71875 -4.640625 C 8.71875 -5.367188 8.5 -5.925781 8.0625 -6.3125 C 7.632812 -6.695312 7.003906 -6.890625 6.171875 -6.890625 L 3.859375 -6.890625 L 3.859375 -9.25 L 5.875 -9.25 C 6.5625 -9.25 7.109375 -9.421875 7.515625 -9.765625 C 7.921875 -10.109375 8.125 -10.601562 8.125 -11.25 C 8.125 -11.875 7.929688 -12.347656 7.546875 -12.671875 C 7.171875 -12.992188 6.644531 -13.15625 5.96875 -13.15625 C 5.28125 -13.15625 4.671875 -12.992188 4.140625 -12.671875 C 3.609375 -12.347656 3.179688 -11.910156 2.859375 -11.359375 L 2.625 -11.3125 L 1.015625 -13.1875 C 1.554688 -13.914062 2.25 -14.5 3.09375 -14.9375 C 3.945312 -15.382812 4.960938 -15.609375 6.140625 -15.609375 C 7.753906 -15.609375 8.984375 -15.269531 9.828125 -14.59375 C 10.679688 -13.925781 11.109375 -12.984375 11.109375 -11.765625 C 11.109375 -11.023438 10.9375 -10.394531 10.59375 -9.875 C 10.25 -9.351562 9.753906 -8.898438 9.109375 -8.515625 L 9.109375 -8.296875 C 10.878906 -7.671875 11.765625 -6.40625 11.765625 -4.5 C 11.765625 -3.550781 11.5625 -2.722656 11.15625 -2.015625 C 10.75 -1.304688 10.132812 -0.753906 9.3125 -0.359375 C 8.5 0.0234375 7.488281 0.21875 6.28125 0.21875 Z M 6.28125 0.21875 "/></g></g></g><g fill="#36b192" fill-opacity="1"><g transform="translate(323.76254, 293.41904)"><g/></g></g><g fill="#36b192" fill-opacity="1"><g transform="translate(328.846545, 293.41904)"><g><path d="M 11.9375 -9.609375 L 11.9375 -15.390625 L 14.96875 -15.390625 L 14.96875 0 L 11.9375 0 L 11.9375 -7.015625 L 5.046875 -7.015625 L 5.046875 0 L 2 0 L 2 -15.390625 L 5.046875 -15.390625 L 5.046875 -9.609375 Z M 11.9375 -9.609375 "/></g></g></g><g fill="#36b192" fill-opacity="1"><g transform="translate(345.824799, 293.41904)"><g><path d="M 4.53125 0.21875 C 3.78125 0.21875 3.128906 0.0820312 2.578125 -0.1875 C 2.035156 -0.457031 1.617188 -0.859375 1.328125 -1.390625 C 1.035156 -1.921875 0.890625 -2.5625 0.890625 -3.3125 C 0.890625 -4 1.035156 -4.570312 1.328125 -5.03125 C 1.617188 -5.5 2.070312 -5.882812 2.6875 -6.1875 C 3.3125 -6.488281 4.117188 -6.71875 5.109375 -6.875 C 5.804688 -6.988281 6.335938 -7.109375 6.703125 -7.234375 C 7.066406 -7.367188 7.3125 -7.519531 7.4375 -7.6875 C 7.5625 -7.863281 7.625 -8.082031 7.625 -8.34375 C 7.625 -8.707031 7.492188 -8.988281 7.234375 -9.1875 C 6.972656 -9.382812 6.539062 -9.484375 5.9375 -9.484375 C 5.289062 -9.484375 4.675781 -9.335938 4.09375 -9.046875 C 3.507812 -8.765625 3.003906 -8.390625 2.578125 -7.921875 L 2.375 -7.921875 L 1.140625 -9.765625 C 1.734375 -10.410156 2.453125 -10.914062 3.296875 -11.28125 C 4.148438 -11.644531 5.078125 -11.828125 6.078125 -11.828125 C 7.617188 -11.828125 8.734375 -11.5 9.421875 -10.84375 C 10.109375 -10.195312 10.453125 -9.273438 10.453125 -8.078125 L 10.453125 -3.03125 C 10.453125 -2.507812 10.679688 -2.25 11.140625 -2.25 C 11.316406 -2.25 11.488281 -2.28125 11.65625 -2.34375 L 11.796875 -2.3125 L 12.015625 -0.28125 C 11.847656 -0.164062 11.617188 -0.078125 11.328125 -0.015625 C 11.046875 0.046875 10.734375 0.078125 10.390625 0.078125 C 9.691406 0.078125 9.148438 -0.0507812 8.765625 -0.3125 C 8.378906 -0.582031 8.097656 -1 7.921875 -1.5625 L 7.703125 -1.59375 C 7.140625 -0.382812 6.082031 0.21875 4.53125 0.21875 Z M 5.453125 -1.953125 C 6.128906 -1.953125 6.664062 -2.175781 7.0625 -2.625 C 7.46875 -3.082031 7.671875 -3.71875 7.671875 -4.53125 L 7.671875 -5.703125 L 7.46875 -5.75 C 7.300781 -5.601562 7.070312 -5.484375 6.78125 -5.390625 C 6.5 -5.296875 6.09375 -5.203125 5.5625 -5.109375 C 4.925781 -5.003906 4.46875 -4.820312 4.1875 -4.5625 C 3.914062 -4.3125 3.78125 -3.953125 3.78125 -3.484375 C 3.78125 -2.984375 3.925781 -2.601562 4.21875 -2.34375 C 4.519531 -2.082031 4.929688 -1.953125 5.453125 -1.953125 Z M 5.453125 -1.953125 "/></g></g></g><g fill="#36b192" fill-opacity="1"><g transform="translate(358.066405, 293.41904)"><g><path d="M 3.125 -13 C 2.601562 -13 2.175781 -13.15625 1.84375 -13.46875 C 1.507812 -13.789062 1.34375 -14.207031 1.34375 -14.71875 C 1.34375 -15.21875 1.507812 -15.625 1.84375 -15.9375 C 2.175781 -16.257812 2.601562 -16.421875 3.125 -16.421875 C 3.476562 -16.421875 3.789062 -16.347656 4.0625 -16.203125 C 4.332031 -16.054688 4.539062 -15.851562 4.6875 -15.59375 C 4.84375 -15.34375 4.921875 -15.050781 4.921875 -14.71875 C 4.921875 -14.382812 4.84375 -14.085938 4.6875 -13.828125 C 4.539062 -13.566406 4.332031 -13.363281 4.0625 -13.21875 C 3.789062 -13.070312 3.476562 -13 3.125 -13 Z M 1.671875 0 L 1.671875 -11.609375 L 4.59375 -11.609375 L 4.59375 0 Z M 1.671875 0 "/></g></g></g><g fill="#36b192" fill-opacity="1"><g transform="translate(364.31878, 293.41904)"><g><path d="M 1.671875 0 L 1.671875 -16.28125 L 4.59375 -16.28125 L 4.59375 -7.25 L 4.875 -7.25 L 8.234375 -11.609375 L 11.1875 -11.609375 L 11.1875 -11.375 L 7.25 -6.28125 L 11.640625 -0.265625 L 11.640625 0 L 8.5625 0 L 4.875 -4.890625 L 4.59375 -4.890625 L 4.59375 0 Z M 1.671875 0 "/></g></g></g><g fill="#36b192" fill-opacity="1"><g transform="translate(375.970936, 293.41904)"><g><path d="M 5.3125 0.21875 C 4.007812 0.21875 3.046875 -0.132812 2.421875 -0.84375 C 1.804688 -1.5625 1.5 -2.585938 1.5 -3.921875 L 1.5 -11.609375 L 4.40625 -11.609375 L 4.40625 -4.28125 C 4.40625 -3.570312 4.554688 -3.054688 4.859375 -2.734375 C 5.171875 -2.410156 5.644531 -2.25 6.28125 -2.25 C 7.09375 -2.25 7.722656 -2.507812 8.171875 -3.03125 C 8.617188 -3.5625 8.84375 -4.394531 8.84375 -5.53125 L 8.84375 -11.609375 L 11.765625 -11.609375 L 11.765625 0 L 8.953125 0 L 8.953125 -1.703125 L 8.734375 -1.765625 C 8.367188 -1.097656 7.914062 -0.597656 7.375 -0.265625 C 6.832031 0.0546875 6.144531 0.21875 5.3125 0.21875 Z M 5.3125 0.21875 "/></g></g></g><g fill="#36b192" fill-opacity="1"><g transform="translate(389.401964, 293.41904)"><g/></g></g><g fill="#36b192" fill-opacity="1"><g transform="translate(394.485969, 293.41904)"><g><path d="M 8.40625 0.21875 C 6.988281 0.21875 5.738281 -0.0703125 4.65625 -0.65625 C 3.582031 -1.25 2.738281 -2.132812 2.125 -3.3125 C 1.507812 -4.5 1.203125 -5.960938 1.203125 -7.703125 C 1.203125 -9.429688 1.507812 -10.882812 2.125 -12.0625 C 2.738281 -13.25 3.582031 -14.132812 4.65625 -14.71875 C 5.738281 -15.3125 6.988281 -15.609375 8.40625 -15.609375 C 9.894531 -15.609375 11.15625 -15.316406 12.1875 -14.734375 C 13.21875 -14.160156 13.957031 -13.28125 14.40625 -12.09375 L 12.1875 -10.734375 L 11.921875 -10.75 C 11.585938 -11.550781 11.140625 -12.125 10.578125 -12.46875 C 10.015625 -12.820312 9.289062 -13 8.40625 -13 C 7.132812 -13 6.140625 -12.570312 5.421875 -11.71875 C 4.703125 -10.875 4.34375 -9.535156 4.34375 -7.703125 C 4.34375 -5.867188 4.703125 -4.523438 5.421875 -3.671875 C 6.140625 -2.828125 7.132812 -2.40625 8.40625 -2.40625 C 10.40625 -2.40625 11.632812 -3.378906 12.09375 -5.328125 L 12.34375 -5.328125 L 14.59375 -4.15625 C 14.164062 -2.695312 13.441406 -1.601562 12.421875 -0.875 C 11.410156 -0.144531 10.070312 0.21875 8.40625 0.21875 Z M 8.40625 0.21875 "/></g></g></g><g fill="#36b192" fill-opacity="1"><g transform="translate(409.58008, 293.41904)"><g><path d="M 6.75 0.21875 C 5.613281 0.21875 4.613281 -0.0078125 3.75 -0.46875 C 2.894531 -0.9375 2.226562 -1.625 1.75 -2.53125 C 1.28125 -3.4375 1.046875 -4.523438 1.046875 -5.796875 C 1.046875 -7.078125 1.28125 -8.171875 1.75 -9.078125 C 2.226562 -9.984375 2.894531 -10.664062 3.75 -11.125 C 4.613281 -11.59375 5.613281 -11.828125 6.75 -11.828125 C 7.882812 -11.828125 8.878906 -11.59375 9.734375 -11.125 C 10.597656 -10.664062 11.269531 -9.984375 11.75 -9.078125 C 12.226562 -8.171875 12.46875 -7.078125 12.46875 -5.796875 C 12.46875 -4.523438 12.226562 -3.4375 11.75 -2.53125 C 11.269531 -1.625 10.597656 -0.9375 9.734375 -0.46875 C 8.878906 -0.0078125 7.882812 0.21875 6.75 0.21875 Z M 6.75 -2.25 C 8.550781 -2.25 9.453125 -3.429688 9.453125 -5.796875 C 9.453125 -7.023438 9.21875 -7.925781 8.75 -8.5 C 8.289062 -9.070312 7.625 -9.359375 6.75 -9.359375 C 4.945312 -9.359375 4.046875 -8.171875 4.046875 -5.796875 C 4.046875 -3.429688 4.945312 -2.25 6.75 -2.25 Z M 6.75 -2.25 "/></g></g></g><g fill="#36b192" fill-opacity="1"><g transform="translate(423.074257, 293.41904)"><g><path d="M 1.671875 0 L 1.671875 -11.609375 L 4.46875 -11.609375 L 4.46875 -9.90625 L 4.703125 -9.859375 C 5.421875 -11.171875 6.59375 -11.828125 8.21875 -11.828125 C 9.550781 -11.828125 10.53125 -11.460938 11.15625 -10.734375 C 11.789062 -10.003906 12.109375 -8.941406 12.109375 -7.546875 L 12.109375 0 L 9.1875 0 L 9.1875 -7.1875 C 9.1875 -7.957031 9.03125 -8.515625 8.71875 -8.859375 C 8.414062 -9.203125 7.925781 -9.375 7.25 -9.375 C 6.40625 -9.375 5.75 -9.101562 5.28125 -8.5625 C 4.820312 -8.019531 4.59375 -7.171875 4.59375 -6.015625 L 4.59375 0 Z M 1.671875 0 "/></g></g></g><g fill="#36b192" fill-opacity="1"><g transform="translate(436.673699, 293.41904)"><g><path d="M 8.015625 -2.765625 L 8.765625 -0.609375 C 8.453125 -0.347656 8.054688 -0.144531 7.578125 0 C 7.097656 0.144531 6.554688 0.21875 5.953125 0.21875 C 4.703125 0.21875 3.75 -0.117188 3.09375 -0.796875 C 2.4375 -1.484375 2.109375 -2.484375 2.109375 -3.796875 L 2.109375 -9.3125 L 0.34375 -9.3125 L 0.34375 -11.625 L 2.109375 -11.625 L 2.109375 -13.890625 L 5.03125 -14.359375 L 5.03125 -11.625 L 8.328125 -11.625 L 8.328125 -9.3125 L 5.03125 -9.3125 L 5.03125 -4 C 5.03125 -3.425781 5.148438 -3.003906 5.390625 -2.734375 C 5.628906 -2.472656 5.976562 -2.34375 6.4375 -2.34375 C 6.957031 -2.34375 7.410156 -2.484375 7.796875 -2.765625 Z M 8.015625 -2.765625 "/></g></g></g><g fill="#36b192" fill-opacity="1"><g transform="translate(445.694378, 293.41904)"><g><path d="M 11.46875 -5.15625 L 4.015625 -5.15625 C 4.097656 -4.132812 4.382812 -3.394531 4.875 -2.9375 C 5.363281 -2.476562 6.035156 -2.25 6.890625 -2.25 C 7.554688 -2.25 8.09375 -2.375 8.5 -2.625 C 8.914062 -2.875 9.25 -3.253906 9.5 -3.765625 L 9.734375 -3.765625 L 11.671875 -2.515625 C 11.285156 -1.703125 10.707031 -1.039062 9.9375 -0.53125 C 9.175781 -0.03125 8.160156 0.21875 6.890625 0.21875 C 5.679688 0.21875 4.640625 -0.00390625 3.765625 -0.453125 C 2.898438 -0.910156 2.226562 -1.59375 1.75 -2.5 C 1.28125 -3.40625 1.046875 -4.503906 1.046875 -5.796875 C 1.046875 -7.117188 1.289062 -8.234375 1.78125 -9.140625 C 2.28125 -10.046875 2.953125 -10.71875 3.796875 -11.15625 C 4.648438 -11.601562 5.609375 -11.828125 6.671875 -11.828125 C 8.316406 -11.828125 9.578125 -11.390625 10.453125 -10.515625 C 11.328125 -9.648438 11.765625 -8.378906 11.765625 -6.703125 C 11.765625 -6.085938 11.742188 -5.613281 11.703125 -5.28125 Z M 8.96875 -7.03125 C 8.9375 -7.914062 8.726562 -8.5625 8.34375 -8.96875 C 7.96875 -9.375 7.410156 -9.578125 6.671875 -9.578125 C 5.203125 -9.578125 4.335938 -8.726562 4.078125 -7.03125 Z M 8.96875 -7.03125 "/></g></g></g><g fill="#36b192" fill-opacity="1"><g transform="translate(458.314916, 293.41904)"><g><path d="M 5.4375 0.21875 C 4.644531 0.21875 3.914062 0.125 3.25 -0.0625 C 2.59375 -0.25 2.03125 -0.503906 1.5625 -0.828125 C 1.09375 -1.148438 0.75 -1.523438 0.53125 -1.953125 L 2.140625 -3.703125 L 2.375 -3.703125 C 2.757812 -3.179688 3.210938 -2.789062 3.734375 -2.53125 C 4.265625 -2.269531 4.835938 -2.140625 5.453125 -2.140625 C 6.023438 -2.140625 6.453125 -2.238281 6.734375 -2.4375 C 7.023438 -2.644531 7.171875 -2.9375 7.171875 -3.3125 C 7.171875 -3.613281 7.066406 -3.863281 6.859375 -4.0625 C 6.648438 -4.257812 6.316406 -4.414062 5.859375 -4.53125 L 4.3125 -4.890625 C 3.164062 -5.171875 2.328125 -5.59375 1.796875 -6.15625 C 1.265625 -6.71875 1 -7.4375 1 -8.3125 C 1 -9.03125 1.179688 -9.65625 1.546875 -10.1875 C 1.921875 -10.71875 2.441406 -11.125 3.109375 -11.40625 C 3.773438 -11.6875 4.554688 -11.828125 5.453125 -11.828125 C 6.492188 -11.828125 7.359375 -11.675781 8.046875 -11.375 C 8.742188 -11.070312 9.285156 -10.671875 9.671875 -10.171875 L 8.109375 -8.484375 L 7.890625 -8.484375 C 7.566406 -8.847656 7.203125 -9.113281 6.796875 -9.28125 C 6.398438 -9.445312 5.953125 -9.53125 5.453125 -9.53125 C 4.304688 -9.53125 3.734375 -9.175781 3.734375 -8.46875 C 3.734375 -8.164062 3.835938 -7.914062 4.046875 -7.71875 C 4.265625 -7.53125 4.644531 -7.378906 5.1875 -7.265625 L 6.609375 -6.953125 C 7.785156 -6.691406 8.644531 -6.28125 9.1875 -5.71875 C 9.738281 -5.164062 10.015625 -4.421875 10.015625 -3.484375 C 10.015625 -2.742188 9.832031 -2.09375 9.46875 -1.53125 C 9.101562 -0.96875 8.578125 -0.535156 7.890625 -0.234375 C 7.203125 0.0664062 6.382812 0.21875 5.4375 0.21875 Z M 5.4375 0.21875 "/></g></g></g><g fill="#36b192" fill-opacity="1"><g transform="translate(469.019737, 293.41904)"><g><path d="M 8.015625 -2.765625 L 8.765625 -0.609375 C 8.453125 -0.347656 8.054688 -0.144531 7.578125 0 C 7.097656 0.144531 6.554688 0.21875 5.953125 0.21875 C 4.703125 0.21875 3.75 -0.117188 3.09375 -0.796875 C 2.4375 -1.484375 2.109375 -2.484375 2.109375 -3.796875 L 2.109375 -9.3125 L 0.34375 -9.3125 L 0.34375 -11.625 L 2.109375 -11.625 L 2.109375 -13.890625 L 5.03125 -14.359375 L 5.03125 -11.625 L 8.328125 -11.625 L 8.328125 -9.3125 L 5.03125 -9.3125 L 5.03125 -4 C 5.03125 -3.425781 5.148438 -3.003906 5.390625 -2.734375 C 5.628906 -2.472656 5.976562 -2.34375 6.4375 -2.34375 C 6.957031 -2.34375 7.410156 -2.484375 7.796875 -2.765625 Z M 8.015625 -2.765625 "/></g></g></g></svg>