<svg xmlns="http://www.w3.org/2000/svg" xmlns:xlink="http://www.w3.org/1999/xlink" width="500" zoomAndPan="magnify" viewBox="0 0 375 374.999991" height="500" preserveAspectRatio="xMidYMid meet" version="1.0"><defs><g/><clipPath id="id1"><path d="M 68.117188 68.117188 L 306.617188 68.117188 L 306.617188 306.617188 L 68.117188 306.617188 Z M 68.117188 68.117188 " clip-rule="nonzero"/></clipPath><clipPath id="id2"><path d="M 68.117188 68.117188 L 306.617188 68.117188 L 306.617188 306.617188 L 68.117188 306.617188 Z M 68.117188 68.117188 " clip-rule="nonzero"/></clipPath><clipPath id="id3"><path d="M 187.367188 68.117188 C 121.503906 68.117188 68.117188 121.503906 68.117188 187.367188 C 68.117188 253.226562 121.503906 306.617188 187.367188 306.617188 C 253.226562 306.617188 306.617188 253.226562 306.617188 187.367188 C 306.617188 121.503906 253.226562 68.117188 187.367188 68.117188 " clip-rule="nonzero"/></clipPath></defs><rect x="-37.5" width="450" fill="#ffffff" y="-37.499999" height="449.999989" fill-opacity="1"/><rect x="-37.5" width="450" fill="#ffffff" y="-37.499999" height="449.999989" fill-opacity="1"/><rect x="-37.5" width="450" fill="#ffffff" y="-37.499999" height="449.999989" fill-opacity="1"/><g clip-path="url(#id1)"><path fill="#37b193" d="M 187.367188 68.117188 C 121.503906 68.117188 68.117188 121.503906 68.117188 187.367188 C 68.117188 253.226562 121.503906 306.617188 187.367188 306.617188 C 253.226562 306.617188 306.617188 253.226562 306.617188 187.367188 C 306.617188 121.503906 253.226562 68.117188 187.367188 68.117188 " fill-opacity="1" fill-rule="nonzero"/></g><g clip-path="url(#id2)"><g clip-path="url(#id3)"><path stroke-linecap="butt" transform="matrix(0.74919, 0, 0, 0.74919, 68.115454, 68.115449)" fill="none" stroke-linejoin="miter" d="M 159.17421 0.00232034 C 71.261562 0.00232034 0.00231433 71.261568 0.00231433 159.174216 C 0.00231433 247.081651 71.261562 318.346112 159.17421 318.346112 C 247.081645 318.346112 318.346106 247.081651 318.346106 159.174216 C 318.346106 71.261568 247.081645 0.00232034 159.17421 0.00232034 " stroke="#f08811" stroke-width="16" stroke-opacity="1" stroke-miterlimit="4"/></g></g><g fill="#ffffff" fill-opacity="1"><g transform="translate(88.52805, 219.958598)"><g><path d="M 9.140625 -54.65625 L 7.34375 -54.5 L 4.1875 -65.140625 C 7.1875 -67.429688 11.457031 -69.875 17 -72.46875 C 22.539062 -75.0625 28.101562 -76.359375 33.6875 -76.359375 C 39.28125 -76.359375 44.097656 -74.757812 48.140625 -71.5625 C 52.179688 -68.375 54.203125 -64.429688 54.203125 -59.734375 C 54.203125 -55.046875 52.703125 -50.851562 49.703125 -47.15625 C 46.710938 -43.46875 42.722656 -40.578125 37.734375 -38.484375 L 37.734375 -37.28125 C 51.609375 -33.59375 58.546875 -27.003906 58.546875 -17.515625 C 58.546875 -9.628906 53.800781 -2.242188 44.3125 4.640625 C 34.832031 11.523438 24.65625 14.96875 13.78125 14.96875 C 9.582031 14.96875 6.609375 13.816406 4.859375 11.515625 C 3.117188 9.222656 2.046875 5.285156 1.640625 -0.296875 L 3.75 -2.390625 C 7.539062 -1.097656 12.179688 -0.453125 17.671875 -0.453125 C 23.160156 -0.453125 27.972656 -1.796875 32.109375 -4.484375 C 36.253906 -7.179688 38.328125 -10.578125 38.328125 -14.671875 C 38.328125 -18.765625 36.53125 -21.785156 32.9375 -23.734375 C 29.34375 -25.679688 23.753906 -26.65625 16.171875 -26.65625 L 14.828125 -28.15625 L 13.78125 -37.4375 L 23.515625 -39.53125 C 26.898438 -41.03125 29.613281 -43.101562 31.65625 -45.75 C 33.707031 -48.394531 34.734375 -51.015625 34.734375 -53.609375 C 34.734375 -56.203125 33.859375 -58.242188 32.109375 -59.734375 C 30.367188 -61.234375 28.203125 -61.984375 25.609375 -61.984375 C 20.316406 -61.984375 14.828125 -59.539062 9.140625 -54.65625 Z M 9.140625 -54.65625 "/></g></g></g><g fill="#ffffff" fill-opacity="1"><g transform="translate(153.059289, 219.958598)"><g><path d="M 65.734375 -28.59375 C 65.734375 -19.707031 62.765625 -12.421875 56.828125 -6.734375 C 50.890625 -1.046875 43.273438 1.796875 33.984375 1.796875 C 24.703125 1.796875 17.414062 -1.195312 12.125 -7.1875 C 6.832031 -13.175781 4.1875 -20.960938 4.1875 -30.546875 C 4.1875 -36.734375 5.132812 -42.570312 7.03125 -48.0625 C 8.925781 -53.550781 11.394531 -58.21875 14.4375 -62.0625 C 17.488281 -65.90625 20.882812 -69.445312 24.625 -72.6875 C 28.375 -75.9375 32.09375 -78.5625 35.78125 -80.5625 C 43.96875 -84.945312 49.8125 -87.640625 53.3125 -88.640625 L 56.15625 -89.546875 L 57.640625 -88.796875 L 60.640625 -80.5625 C 58.847656 -80.0625 56.078125 -78.738281 52.328125 -76.59375 C 48.585938 -74.445312 45.367188 -72.273438 42.671875 -70.078125 C 39.972656 -67.878906 37.101562 -64.929688 34.0625 -61.234375 C 31.019531 -57.546875 28.648438 -53.601562 26.953125 -49.40625 L 27.703125 -48.515625 C 28.003906 -48.609375 28.953125 -49.109375 30.546875 -50.015625 C 35.234375 -52.410156 38.523438 -53.753906 40.421875 -54.046875 C 48.210938 -54.046875 54.378906 -51.578125 58.921875 -46.640625 C 63.460938 -41.703125 65.734375 -35.6875 65.734375 -28.59375 Z M 47.921875 -24.84375 C 47.921875 -29.539062 46.722656 -33.382812 44.328125 -36.375 C 41.929688 -39.375 38.707031 -40.875 34.65625 -40.875 C 30.613281 -40.875 26.648438 -39.476562 22.765625 -36.6875 C 22.554688 -33.894531 22.453125 -31.796875 22.453125 -30.390625 C 22.453125 -24.109375 23.625 -19.191406 25.96875 -15.640625 C 28.320312 -12.097656 31.519531 -10.328125 35.5625 -10.328125 C 39.601562 -10.328125 42.671875 -11.570312 44.765625 -14.0625 C 46.867188 -16.5625 47.921875 -20.15625 47.921875 -24.84375 Z M 47.921875 -24.84375 "/></g></g></g><g fill="#ffffff" fill-opacity="1"><g transform="translate(222.531442, 219.958598)"><g><path d="M 57.34375 -19.46875 C 57.34375 -10.78125 52.523438 -2.867188 42.890625 4.265625 C 33.265625 11.398438 23.007812 14.96875 12.125 14.96875 C 8.132812 14.96875 5.238281 13.84375 3.4375 11.59375 C 1.644531 9.351562 0.550781 5.390625 0.15625 -0.296875 L 2.09375 -2.390625 C 5.988281 -1.097656 10.726562 -0.453125 16.3125 -0.453125 C 21.90625 -0.453125 26.847656 -1.796875 31.140625 -4.484375 C 35.429688 -7.179688 37.578125 -10.550781 37.578125 -14.59375 C 37.578125 -18.632812 35.476562 -21.78125 31.28125 -24.03125 C 27.09375 -26.28125 19.757812 -28.148438 9.28125 -29.640625 L 7.9375 -31.296875 L 10.9375 -71.71875 L 12.125 -72.921875 L 41.03125 -73.96875 C 43.925781 -74.164062 46.019531 -74.660156 47.3125 -75.453125 C 48.613281 -76.253906 49.660156 -77.753906 50.453125 -79.953125 L 58.703125 -80.5625 L 54.796875 -58.546875 L 52.859375 -56.59375 C 43.773438 -57.394531 33.84375 -57.796875 23.0625 -57.796875 L 21.859375 -44.46875 C 33.835938 -42.070312 42.742188 -38.976562 48.578125 -35.1875 C 54.421875 -31.394531 57.34375 -26.15625 57.34375 -19.46875 Z M 57.34375 -19.46875 "/></g></g></g></svg>